<?xml version="1.0" encoding="UTF-8" standalone="no"?>
<!-- Created with Inkscape (http://www.inkscape.org/) -->

<svg
   xmlns:dc="http://purl.org/dc/elements/1.1/"
   xmlns:cc="http://creativecommons.org/ns#"
   xmlns:rdf="http://www.w3.org/1999/02/22-rdf-syntax-ns#"
   xmlns:svg="http://www.w3.org/2000/svg"
   xmlns="http://www.w3.org/2000/svg"
   xmlns:xlink="http://www.w3.org/1999/xlink"
   xmlns:sodipodi="http://sodipodi.sourceforge.net/DTD/sodipodi-0.dtd"
   xmlns:inkscape="http://www.inkscape.org/namespaces/inkscape"
   width="512"
   height="512"
   id="svg2"
   version="1.1"
   inkscape:version="0.48.2 r9819"
   sodipodi:docname="one finger.svg"
   enable-background="new"
   inkscape:export-filename="/Volumes/SHARED/cabbage/eclipseWorkspace/tavimator/res/drawable-hdpi/ic_menu_two_finger.png"
   inkscape:export-xdpi="12.66"
   inkscape:export-ydpi="12.66">
  <defs
     id="defs4" />
  <sodipodi:namedview
     id="base"
     pagecolor="#ffffff"
     bordercolor="#666666"
     borderopacity="1.0"
     inkscape:pageopacity="0.0"
     inkscape:pageshadow="2"
     inkscape:zoom="0.7"
     inkscape:cx="-139.06365"
     inkscape:cy="165.34831"
     inkscape:document-units="px"
     inkscape:current-layer="g3779"
     showgrid="false"
     inkscape:window-width="1436"
     inkscape:window-height="856"
     inkscape:window-x="4"
     inkscape:window-y="0"
     inkscape:window-maximized="1" />
  <metadata
     id="metadata7">
    <rdf:RDF>
      <cc:Work
         rdf:about="">
        <dc:format>image/svg+xml</dc:format>
        <dc:type
           rdf:resource="http://purl.org/dc/dcmitype/StillImage" />
        <dc:title></dc:title>
      </cc:Work>
    </rdf:RDF>
  </metadata>
  <g
     inkscape:groupmode="layer"
     id="layer3"
     inkscape:label="background"
     sodipodi:insensitive="true"
     style="display:none">
    <rect
       style="fill:#4cce4c;fill-opacity:1;stroke:none"
       id="rect2998"
       width="612.85712"
       height="562.85712"
       x="-42.857143"
       y="-20.857143"
       rx="16"
       ry="21.333401" />
  </g>
  <g
     inkscape:label="one finger ref"
     inkscape:groupmode="layer"
     id="layer1"
     transform="translate(0,-540.36218)"
     sodipodi:insensitive="true"
     style="display:none">
    <image
       y="540.36218"
       x="-254.28572"
       id="image3098"
       xlink:href="file:///Users/tapple/Pictures/Photo%20Booth%20Library/Pictures/Photo%20on%201-28-13%20at%205.52%20PM.jpg"
       height="512"
       width="768" />
  </g>
  <g
     inkscape:groupmode="layer"
     id="layer4"
     inkscape:label="two finger ref"
     sodipodi:insensitive="true"
     style="display:none">
    <image
       y="-87.766037"
       x="-427.11823"
       id="image3972"
       xlink:href="file:///Users/tapple/Pictures/Photo%20Booth%20Library/Pictures/Photo%20on%201-28-13%20at%205.52%20PM%20%232.jpg"
       height="675.41022"
       width="1013.1154"
       inkscape:transform-center-x="183.89234"
       inkscape:transform-center-y="-66.627672" />
  </g>
  <g
     inkscape:groupmode="layer"
     id="layer2"
     inkscape:label="one finger real"
     style="display:none">
    <path
       id="path3112"
       style="fill:#000000;fill-opacity:0.35111114;stroke:none"
       d="m 169.45308,237.74359 c -6.21755,-12.81699 -12.6384,-21.06071 -23.2335,-26.26397 -6.99633,-19.73402 -10.68038,-42.57449 -14.64721,-64.14469 -4.05882,-22.07044 -7.63441,-41.51981 -9.34391,-66.670067 -1.18179,-17.386534 8.8208,-28.810996 20.70813,-29.041886 7.97957,-0.154988 13.35588,11.431543 14.64721,18.940361 2.61789,15.222462 10.40112,44.084282 14.01707,60.012872 3.61595,15.92859 8.62046,17.66127 12.24689,33.42623 4.04585,17.58826 6.81461,30.41286 9.59645,50.76017 -8.896,2.90763 -22.95001,11.87859 -23.99113,22.98098 z m -52.78046,-22.98098 c 3.92243,12.28833 13.52015,31.26861 15.90991,39.90103 4.48874,16.21456 -4.80545,31.66969 -2.27285,47.22463 1.56757,9.62786 9.55153,19.26457 13.579,28.22021 4.034,8.97013 4.52689,17.28819 7.6342,26.32803 5.34655,15.55429 3.91021,22.62479 8.83884,32.82995 7.69536,15.93396 21.199,28.33989 31.56726,42.67895 8.03325,11.1098 12.81584,25.30179 23.73859,33.58757 14.38224,10.91008 32.96223,18.42588 51.0127,18.18275 11.19199,-0.15075 20.12269,-11.9746 31.31473,-12.12183 10.01046,-0.1317 18.30223,9.33622 28.28427,10.10152 17.77797,1.36299 39.65744,2.23802 52.52793,-10.10152 13.73642,-13.16975 12.16474,-36.55323 13.13199,-55.55839 1.05294,-20.68888 -4.16898,-41.27643 -8.08122,-61.61931 -3.34682,-17.40281 -8.44231,-34.42784 -13.13199,-51.51778 -1.97369,-7.19243 -3.70611,-13.5686 -6.31345,-21.46574 -19.09422,2.86759 -26.4903,24.30671 -33.33504,40.15357 -5.35445,12.39658 -11.47643,56.65557 -19.1929,61.36676 -7.05017,4.30439 -18.84235,3.63146 -23.48603,-1.51522 0.19529,8.43971 1.79611,34.58697 -18.68783,37.62817 -12.55193,1.86356 -25.31303,-1.76346 -30.55712,-26.76904 0.82408,12.84351 -12.04265,18.1794 -19.44543,19.69798 -9.04878,1.85624 -20.43491,-11.05157 -27.49601,-24.88277 -7.06111,-13.8312 -9.79719,-28.58578 -12.65755,-40.5246 -7.29569,-30.45138 -9.27825,-94.43124 -11.11169,-103.03557 -2.90287,-13.62323 -18.27467,-27.44313 -27.52665,-31.56726 -7.07228,-3.15252 -13.40808,-8.11019 -24.24366,2.77791 z m 185.36299,165.91756 c 9.2296,0.29469 12.91236,-4.77887 15.9099,-22.72844 1.30018,-7.78554 2.4401,-10.22159 4.67376,-17.41661 2.23365,-7.19502 3.33406,-20.59257 7.44807,-30.06055 3.78246,-8.70494 8.44126,-17.55478 15.5311,-23.86485 4.73847,-4.21732 17.04633,-8.46003 17.04633,-8.46003 0,0 -5.22635,-12.60725 -10.35407,-16.66752 -7.45045,-5.89949 -17.58811,-10.24157 -27.02158,-9.09137 -13.37517,1.6308 -33.09128,6.94234 -34.09265,21.71827 -1.66685,24.59564 -4.43912,33.09267 -5.05076,49.75002 -0.44498,12.11834 0.71143,24.24266 1.01016,36.36549 0.57961,23.52167 5.96347,20.17027 14.89974,20.45559 z m -36.36549,35.10279 c 12.13489,-0.93847 20.55713,-11.42004 19.1929,-31.06218 -1.38547,-19.94787 -4.38614,-39.8586 -4.04061,-59.85154 0.31439,-18.19035 4.76616,-35.23618 5.55584,-54.2957 0.43368,-10.46721 20.20305,-18.68782 20.20305,-18.68782 -13.02007,-10.86281 -24.0423,-11.03838 -37.37564,-14.64721 -17.77,-5.05324 -38.30854,22.828 -37.88073,36.36549 0.95571,30.24211 3.91735,49.37426 6.566,73.99368 1.50664,14.00433 3.50809,27.95104 5.30329,41.92132 2.39236,18.61732 10.98746,27.15244 22.4759,26.26396 z m -45.45687,-7.3236 c 11.64098,-2.05595 17.5728,-9.96529 15.65738,-31.8198 -2.40108,-27.39574 -8.58006,-54.3801 -9.59646,-81.82235 -0.36487,-9.85122 -0.92503,-17.10391 1.26269,-29.54697 0.72053,-6.39986 7.71937,-17.04737 13.63706,-22.72843 -11.23416,-15.31119 -28.97067,-28.056 -45.45687,-23.61232 -13.81097,3.7226 -25.51497,11.07845 -22.98096,36.23922 2.53401,25.16077 9.0223,77.21244 11.8693,90.15612 3.35959,15.27414 4.40224,28.23339 11.61674,40.15356 5.73394,9.47392 13.08591,24.90698 23.99112,22.98097 z"
       inkscape:connector-curvature="0"
       sodipodi:nodetypes="ccasassscccssssaaaaaaaaaacsscscssssccsssaacaasassasasccsasaasaccazsaa" />
    <path
       id="path3896"
       style="opacity:0.56431538;fill:none;stroke:#ffffff;stroke-width:10;stroke-linecap:butt;stroke-linejoin:miter;stroke-miterlimit:4;stroke-opacity:1;stroke-dasharray:none;display:inline"
       d="m 145.46197,211.98469 c 7.07106,4.54569 19.1929,16.66752 24.24366,26.76904 m 69.70052,143.94674 c 0,0 -3.53553,25.25382 -17.9302,27.52666 -15.75279,2.48728 -22.00976,-13.22697 -28.53682,-23.73859 -9.17655,-14.77855 -11.11619,-36.21008 -12.12182,-50.76016 -0.50508,-11.11168 -11.11168,-81.31728 -11.11168,-94.95434 0,-13.63706 12.54025,-20.3256 24.66208,-23.35606 m 114.73897,35.47789 c 0,0 -14.64721,4.54569 -17.67767,12.62691 -3.03046,8.08122 -7.3236,38.3858 -7.3236,52.52793 0,14.14214 1.26268,55.05331 1.76776,67.17515 0.50508,12.12183 -5.05076,32.57742 -17.67767,32.57742 -12.6269,0 -26.26397,-11.8693 -26.76904,-25.50636 -0.50508,-13.63706 -8.5863,-50.50762 -9.09137,-67.17514 -0.50508,-16.66752 -3.88216,-44.96666 -2.46411,-58.76217 1.0329,-10.04858 12.56563,-21.54496 12.56563,-21.54496 m 120.20815,35.35534 c 0,0 -12.6269,2.02031 -18.18274,11.11168 -5.55584,9.09137 -18.68782,31.31473 -21.71828,49.49747 -3.03046,18.18275 -7.57615,45.45687 -18.68782,42.93149 -11.11168,-2.52538 -14.64722,-2.02031 -14.64722,-6.06092"
       inkscape:connector-curvature="0"
       sodipodi:nodetypes="cccsacsccsssssssccsssc" />
  </g>
  <g
     style="display:none"
     inkscape:label="two finger real"
     id="g3976"
     inkscape:groupmode="layer">
    <path
       sodipodi:nodetypes="asssaaaaaaaaaacscczcsszzasccsssasaaa"
       inkscape:connector-curvature="0"
       d="m 121.86824,260.37793 c 3.54232,13.66843 5.90884,25.9554 8.44144,41.51034 1.56757,9.62786 4.55153,23.19314 8.579,32.14878 4.034,8.97013 6.66975,15.85962 9.77706,24.89946 5.34655,15.55429 8.67049,20.63085 14.19598,30.32995 8.52014,14.95572 19.25515,28.5372 29.06726,42.67895 7.81546,11.26407 12.81584,25.30179 23.73859,33.58757 14.38224,10.91008 32.96223,18.42588 51.0127,18.18275 11.19199,-0.15075 20.12269,-11.9746 31.31473,-12.12183 10.01046,-0.1317 18.30223,9.33622 28.28427,10.10152 17.77797,1.36299 39.65744,2.23802 52.52793,-10.10152 13.73642,-13.16975 12.16474,-36.55323 13.13199,-55.55839 1.05294,-20.68888 -4.16898,-41.27643 -8.08122,-61.61931 -3.34682,-17.40281 -8.3066,-34.46567 -13.13199,-51.51778 -2.19665,-7.76258 -3.70611,-13.5686 -7.19733,-23.10723 0,0 -4.31497,-13.39158 -8.73795,-19.02331 -5.95353,-7.58055 -8.65954,-13.81299 -27.37872,-19.09137 -6.22927,-0.16836 -21.38712,-0.69386 -27.25925,-2.29079 -0.16293,-16.93424 -16.62684,-31.19095 -34.5185,-31.07578 -17.89166,0.11517 -23.30854,11.39943 -30.45624,15.29868 -13.4555,-59.30146 -18.7646,-88.58508 -34.74409,-143.804045 -5.10231,-17.631642 -0.12758,-0.50836 -11.58598,-53.832524 -4.55906,-21.2165949 -6.63942,-57.326451 -36.27226,-54.061844 -29.63285,3.264607 -17.24665,28.48308082 -12.26667,56.813561 4.97997,28.330481 5.59422,35.546236 8.31681,53.330868 3.4327,22.423224 7.87386,43.462704 10.11011,67.298184 1.12377,11.97796 22.48438,56.29337 22.22178,68.45628 l -14.59135,3.32267 C 159.28946,199.82811 147.32827,174.59679 140.27633,154.00244 135.03581,138.69813 123.07396,126.5048 119.45801,110.57621 115.84206,94.64762 108.05883,65.7858 105.44094,50.563338 104.14961,43.05452 93.182119,24.76143 82.222304,26.622977 69.377041,28.804772 64.618099,44.7069 65.799889,62.093434 c 1.7095,25.150257 7.954951,43.761786 13.629624,65.241496 6.524918,24.69805 15.665762,48.62988 23.424127,72.96866 6.37907,20.0118 13.7453,39.74212 19.0146,60.07434 z"
       style="fill:#000000;fill-opacity:1;stroke:none"
       id="path3978" />
    <path
       sodipodi:nodetypes="ccsccaaaccaaszsssccssssc"
       inkscape:connector-curvature="0"
       d="m 160.08199,393.98854 c -5.81815,-17.19663 -3.97334,-41.56722 -4.97897,-56.1173 -0.50508,-11.11168 -1.82596,-59.53157 -1.82596,-73.16863 0,-3.40926 -6.69657,-30.18212 -17.20387,-42.83797 11.20622,-9.45941 24.80508,-11.13959 30.53358,-5.27816 5.72849,5.86143 15.43493,11.63357 21.16852,19.25722 6.58859,8.76048 11.58363,18.94636 14.51122,29.50973 2.49964,9.01925 0.78693,18.75116 2.34733,27.97939 3.5385,20.92672 7.36426,46.31817 15.83349,61.67121 m 83.63935,-119.25102 c 0,0 -3.86332,25.13866 -6.2491,37.62691 -3.2244,16.87795 -6.8099,33.69455 -10.89503,50.38508 -5.11684,20.90577 -16.74764,49.39988 -17.04315,62.27864 -0.4129,17.99465 -6.21065,25.5171 -21.7239,23.9025 -15.51325,-1.6146 -14.12111,-24.01216 -14.62618,-37.64922 -0.50508,-13.63706 -0.72916,-30.50762 -1.23423,-47.17514 -0.50508,-16.66752 -3.88216,-44.96666 -2.46411,-58.76217 1.0329,-10.04858 7.56563,-52.97353 7.56563,-52.97353 m 125.20815,66.78391 c 0,0 -9.76976,19.87745 -15.3256,28.96882 -5.55584,9.09137 -11.18782,34.88616 -17.43257,53.0689 -5.9876,17.43401 -19.26651,39.42873 -23.33067,50.07435 -7.6987,20.16588 -11.34132,35.32203 -28.81192,29.50204 -19.2799,-6.42273 -14.04959,-18.8998 -10.8353,-40.20581"
       style="fill:none;stroke:#ffffff;stroke-width:10;stroke-linecap:butt;stroke-linejoin:miter;stroke-miterlimit:4;stroke-opacity:1;stroke-dasharray:none;display:inline"
       id="path3980" />
  </g>
  <g
     inkscape:label="one finger transformed"
     id="g3907"
     inkscape:groupmode="layer"
     style="display:none">
    <path
       sodipodi:nodetypes="ccasassscccssssaaaaaaaaaacsscscssssccsssaacaasassasasccsasaasaccazsaa"
       inkscape:connector-curvature="0"
       d="M 128.87174,218.81791 C 119.51096,205.01475 109.44315,196.13674 92.155529,190.53313 82.048877,169.28073 77.726889,144.68286 72.830324,121.453 67.820211,97.684407 63.407113,76.738556 62.570317,49.653179 61.991834,30.928884 79.624776,18.625397 99.508295,18.376742 c 13.347155,-0.166913 21.400945,12.311113 22.955825,20.397677 3.15217,16.393714 13.84071,47.476231 18.60402,64.630401 4.76331,17.15418 12.98722,19.02017 17.78119,35.99813 5.34844,18.94154 8.9453,32.75289 11.95984,54.66577 -15.09968,3.13135 -39.30592,12.79256 -41.93743,24.74919 z M 42.515776,194.06872 c 5.567848,13.23383 20.082234,33.67449 23.382455,42.97111 6.198874,17.46215 -10.573984,34.10643 -7.591048,50.85821 1.846306,10.36865 14.414364,20.74683 20.42541,30.39154 6.020797,9.66031 6.176399,18.61838 10.642999,28.35377 7.685394,16.75107 4.717247,24.36559 12.133868,35.35596 11.58001,17.15996 33.14963,30.52043 49.32443,45.96277 12.5321,11.96461 19.38448,27.24857 36.97206,36.17188 23.15799,11.74952 53.60347,19.84361 83.78724,19.58177 18.7151,-0.16235 34.58887,-12.89595 53.30377,-13.05451 16.7391,-0.14184 29.83511,10.05457 46.45467,10.87875 29.5994,1.46786 66.09201,2.41022 88.59102,-10.87875 24.01272,-14.18306 23.26435,-39.36572 26.40714,-59.83319 3.42121,-22.28073 -3.65167,-44.45233 -8.55558,-66.36044 -4.19516,-18.74182 -11.34289,-37.0768 -17.80725,-55.48168 -2.72058,-7.74583 -5.10352,-14.6126 -8.8264,-23.11736 -32.13877,3.08822 -46.22028,26.17692 -58.93131,43.24308 -9.9435,13.3504 -23.72866,61.01478 -37.00206,66.08846 -12.1273,4.63558 -31.77922,3.91087 -39.12593,-1.63181 -0.3515,9.08909 0.2236,37.24818 -34.25148,40.52337 -21.12527,2.00695 -42.15909,-1.89914 -48.91416,-28.82871 0.34558,13.83172 -21.58464,19.57817 -34.07743,21.21359 -15.27055,1.99906 -33.26127,-11.9019 -43.95025,-26.79731 -10.689,-14.8954 -14.07624,-30.78524 -17.89733,-43.64266 -9.74615,-32.79438 -7.92063,-101.697 -10.29344,-110.96337 -3.75685,-14.67143 -28.334779,-29.55467 -43.464579,-33.99612 -11.565327,-3.39508 -21.754936,-8.7342 -40.736815,2.99165 z M 338.95104,372.75237 c 15.39996,0.31737 21.96174,-5.14657 28.41256,-24.47722 2.79805,-8.38458 4.89862,-11.00806 9.20917,-18.75668 4.31055,-7.74863 7.22548,-22.17701 14.86085,-32.37348 7.02004,-9.37472 15.51616,-18.90549 27.87082,-25.70107 8.25718,-4.54181 29.16568,-9.11097 29.16568,-9.11097 0,0 -7.72123,-13.57728 -15.96407,-17.94995 -11.97668,-6.35341 -28.56902,-11.02958 -44.42573,-9.79089 -22.4823,1.75628 -55.85658,7.4765 -58.71672,23.38933 -4.76089,26.48809 -10.07609,35.6389 -12.43605,53.5779 -1.7169,13.05076 -0.75819,26.10795 -1.23263,39.16354 -0.92058,25.33148 8.34559,21.72222 23.25612,22.02949 z m -63.58986,37.80368 c 20.35405,-1.01068 35.27034,-12.29872 34.56813,-33.45217 -0.71314,-21.48271 -4.12843,-42.92542 -1.94526,-64.45666 1.98634,-19.58996 10.79476,-37.94734 13.64519,-58.47334 1.56541,-11.27258 35.26235,-20.12571 35.26235,-20.12571 -20.88547,-11.69862 -39.29068,-11.8877 -61.28223,-15.7742 -29.28969,-5.44205 -65.85106,24.58444 -66.22341,39.16354 -0.83182,32.56901 2.58078,53.17323 5.02963,79.68693 1.39299,15.08185 3.61747,30.10166 5.49541,45.14684 2.50262,20.04978 16.18044,29.24161 35.45019,28.28477 z m -75.375,-7.88709 c 19.61842,-2.21414 30.16637,-10.73205 28.72074,-34.26809 -1.81214,-29.50364 -9.97059,-58.56424 -9.46507,-88.11796 0.18147,-10.60919 -0.17211,-18.41992 4.48318,-31.82038 1.71808,-6.89228 14.26904,-18.35904 24.6144,-24.47721 -17.54372,-16.48927 -46.1597,-30.21469 -74.06677,-25.42911 -23.37857,4.00903 -43.52796,11.93085 -41.31417,39.02755 2.21379,27.0967 8.87584,83.15335 12.5939,97.09295 4.38748,16.44937 5.08902,30.40573 16.18783,43.24307 8.82111,10.20286 19.8675,26.82338 38.24596,24.74918 z"
       style="fill:#8c8e8c;fill-opacity:1;stroke:none;display:inline"
       id="path3905" />
    <path
       sodipodi:nodetypes="cccsscsccsssssssccsssc"
       inkscape:connector-curvature="0"
       d="m 77.999999,181.26925 c 11.451394,4.89545 43.583601,27.75778 51.212661,38.63654 m 107.44642,153.09924 c 0,0 -10.46723,29.12001 -34.70479,31.56773 -26.52433,2.67866 -36.60194,-10.39846 -45.78144,-25.56509 -10.38579,-17.15972 -15.66808,-38.99617 -16.18,-54.66577 0.0484,-11.96664 -12.03773,-87.57403 -10.94246,-102.26036 1.09526,-14.68632 26.942,-28.15328 47.44224,-31.41691 m 191.81004,38.9494 c 0,0 -32.11415,10.41747 -37.82742,19.12048 -5.71327,8.70301 -15.3215,41.3393 -16.45733,56.56956 -1.13583,15.23027 -2.31157,59.28924 -2.4411,72.34376 -0.12953,13.05452 -11.05683,35.08401 -32.15773,35.08401 -21.10088,0 -42.93656,-12.78255 -42.68532,-27.46888 0.25123,-14.68633 -10.29205,-54.3938 -9.79742,-72.34376 0.49463,-17.94996 -2.87596,-48.4265 0.60174,-63.28347 2.53315,-10.82174 27.10613,-30.67528 27.10613,-30.67528 m 197.95612,44.00978 c 0,0 -25.55564,3.71424 -35.57021,13.50512 -10.01457,9.79088 -33.74437,33.72416 -40.26895,53.30593 -6.52457,19.58177 -15.63912,45.00631 -34.67738,46.23474 -17.45914,1.12653 -29.3133,-7.17585 -29.27007,-15.7582"
       style="fill:none;stroke:#ffffff;stroke-width:15;stroke-linecap:butt;stroke-linejoin:miter;stroke-miterlimit:4;stroke-opacity:1;stroke-dasharray:none"
       id="path3909" />
  </g>
  <g
     inkscape:groupmode="layer"
     id="g3982"
     inkscape:label="two finger transformed"
     style="display:none">
    <path
       id="path3984"
       style="fill:#8c8e8c;fill-opacity:1;stroke:none"
       d="m 69.108756,289.49761 c 2.61477,11.97371 3.619224,22.73725 4.128189,36.36357 0.315023,8.43413 2.035018,20.31748 6.557098,28.16273 4.529423,7.85795 7.246885,13.89323 10.234607,21.81224 5.140781,13.62575 9.417507,18.07288 16.23036,26.56941 10.50522,13.1014 24.97936,24.99895 37.80261,37.3873 10.21388,9.86746 15.14167,22.16468 31.17073,29.42312 21.10585,9.55737 49.91961,16.1413 79.68723,15.92832 18.45707,-0.13206 35.93848,-10.4899 54.39482,-10.61887 16.50784,-0.11537 27.92828,8.17864 44.17831,8.84905 28.94123,1.194 64.74817,1.96054 88.83567,-8.84905 25.70808,-11.53687 28.62257,-32.02109 34.68598,-48.66984 6.60056,-18.12372 2.84907,-36.15867 1.19573,-53.97929 -1.41439,-15.24508 -5.56363,-30.19235 -9.49421,-45.13021 -1.78932,-6.80012 -2.90785,-11.88627 -6.41012,-20.24222 0,0 -3.95166,-11.7312 -9.90675,-16.66466 -8.01583,-6.64066 -11.00352,-12.10035 -40.57277,-16.72428 -10.21355,-0.14748 -35.0392,-0.60783 -44.32879,-2.00676 3.71592,-14.8346 -20.02892,-27.32366 -49.50504,-27.22277 -29.47613,0.10089 -41.04695,9.98604 -53.72918,13.40183 -8.19545,-51.94881 -10.0445,-77.60163 -23.35483,-125.97413 -4.25003,-15.44553 -0.0899,-0.44533 -6.40495,-47.157958 -2.51244,-18.586001 2.55891,-50.218685 -46.98374,-47.358848 -49.54268,2.859836 -35.08856,24.951533 -33.557,49.769386 1.53157,24.81785 0.84495,31.13895 1.14205,46.7185 0.37461,19.64303 2.73464,38.07387 0.80768,58.95405 -0.96838,10.49284 23.76436,49.31369 20.47056,59.96855 l -24.79855,2.9107 C 144.94827,236.45521 131.19674,214.35226 124.43472,196.31136 119.40964,182.90459 102.58959,172.22308 100.38537,158.26944 98.181156,144.31579 92.160547,119.03248 91.432983,105.69742 91.074091,99.119597 77.3258,83.094623 58.848375,84.725361 37.192227,86.636641 25.617888,100.5671 23.472551,115.79792 c -3.103312,22.03194 2.797754,38.33587 7.084541,57.15236 4.929082,21.6358 14.344154,42.60038 21.387973,63.92146 5.791554,17.53058 13.274163,34.81459 17.163691,52.62587 z"
       inkscape:connector-curvature="0"
       sodipodi:nodetypes="asssaaaaaaaaaacscczcsszzasccsssasaaa" />
    <path
       id="path3986"
       style="fill:none;stroke:#ffffff;stroke-width:15;stroke-linecap:round;stroke-linejoin:round;stroke-miterlimit:4;stroke-opacity:1;stroke-dasharray:none;display:inline"
       d="m 100.57272,406.54216 c -5.530621,-15.06446 3.23953,-36.4134 5.00748,-49.15945 1.7829,-9.73397 11.0005,-52.1504 14.20888,-64.09663 0.8021,-2.98655 -3.92138,-26.43991 -18.23848,-37.52659 20.67055,-8.28657 43.44908,-9.75842 51.49896,-4.62374 8.04988,5.13469 22.66833,10.19115 30.31201,16.86957 8.78349,7.67429 14.60871,16.59724 16.94219,25.85089 1.99236,7.90097 -3.11631,16.42625 -2.71907,24.51029 0.90082,18.33207 1.22405,40.57529 11.552,54.02475 m 165.7235,-104.46538 c 0,0 -12.27325,22.02178 -19.13826,32.96164 -9.27813,14.7853 -19.13616,29.51685 -29.78691,44.13796 -13.34062,18.31371 -39.1883,43.27491 -42.70467,54.55686 -4.91321,15.76354 -16.2259,22.3533 -41.38029,20.93889 -25.15439,-1.41441 -17.59352,-21.03495 -15.21646,-32.98119 2.37704,-11.94623 5.97734,-26.72505 9.06736,-41.32601 3.09003,-14.60095 4.1894,-39.39135 9.76912,-51.47639 4.06424,-8.80268 24.91582,-46.40547 24.91582,-46.40547 m 193.92637,54.84174 c 0,0 -24.30771,21.07469 -35.59135,29.03884 -11.28362,7.96416 -26.62239,30.56071 -41.17887,46.48902 -13.95707,15.27241 -40.98836,34.54006 -50.18241,43.86575 -17.4162,17.66557 -26.9776,30.94254 -54.36432,25.84416 -30.22294,-5.62639 -18.67857,-16.55646 -8.37531,-35.22079"
       inkscape:connector-curvature="0"
       sodipodi:nodetypes="ccsccaaaccaaszsssccssssc" />
  </g>
  <g
     style="display:none"
     inkscape:groupmode="layer"
     id="g3779"
     inkscape:label="one finger export">
    <path
       style="fill:#8c8e8c;fill-opacity:1;stroke:none;display:inline"
       d="m 99.5,18.375 c -19.883519,0.248655 -37.515983,12.556955 -36.9375,31.28125 0.836796,27.085377 5.271137,48.012657 10.28125,71.78125 3.903995,18.52099 7.447259,37.90992 13.84375,55.78125 6.604962,3.6339 14.67193,9.08695 22.8125,15.09375 6.75,4.98072 13.03421,9.95705 18.1875,14.84375 3.67321,-4.46685 8.59574,-8.23561 13.875,-11.46875 8.3888,-5.1375 18.21461,-9.0288 27.78125,-11.25 -2.72241,-16.64489 -5.98377,-29.03699 -10.5,-45.03125 -4.79397,-16.97796 -13.01794,-18.84582 -17.78125,-36 C 136.29919,86.25208 125.62092,55.174964 122.46875,38.78125 120.91387,30.694686 112.84716,18.208087 99.5,18.375 z m -36.28125,168.5 c -5.790251,0.18919 -12.382928,2.05744 -20.6875,7.1875 5.567848,13.23383 20.074779,33.67213 23.375,42.96875 6.198874,17.46215 -10.576686,34.12322 -7.59375,50.875 1.846306,10.36865 14.395204,20.73029 20.40625,30.375 6.020797,9.66031 6.18965,18.63961 10.65625,28.375 7.685394,16.75107 4.708379,24.35338 12.125,35.34375 11.58001,17.15996 33.16895,30.52641 49.34375,45.96875 12.5321,11.96461 19.38117,27.23294 36.96875,36.15625 23.15799,11.74952 53.59748,19.85559 83.78125,19.59375 18.7151,-0.16235 34.5976,-12.90394 53.3125,-13.0625 16.7391,-0.14184 29.81794,10.05082 46.4375,10.875 29.5994,1.46786 66.09474,2.41397 88.59375,-10.875 24.01272,-14.18306 23.26346,-39.37628 26.40625,-59.84375 3.42121,-22.28073 -3.65859,-44.43564 -8.5625,-66.34375 C 473.58609,325.72693 466.46436,307.40488 460,289 c -2.20831,-6.28734 -4.21443,-12.0249 -6.875,-18.5 -1.32954,0.20879 -6.3737,1.04665 -12.53125,2.78125 -7.13232,2.0092 -15.24651,5.56499 -18.3125,8.5625 -9.88068,9.65998 -33.02629,34.16601 -38.40625,50.3125 -3.28565,9.86101 -7.27239,21.5452 -13.375,31.53125 -6.10261,9.98605 -15.17725,18.98915 -27.9375,19.8125 -9.16537,0.59138 -17.1818,-1.0971 -23.625,-4.375 -0.39573,8.23793 -3.51314,17.40829 -9.59375,25.46875 -6.42119,8.51192 -16.77703,15.625 -29.9375,15.625 -12.0649,0 -23.92184,-3.48539 -33.3125,-9.34375 -6.1133,-3.81379 -11.44691,-8.90847 -14.40625,-15.03125 -6.52967,7.64779 -15.83631,14.86127 -28.96875,16.1875 -14.57058,1.47147 -25.96926,-1.51684 -34.4375,-7.375 -8.46824,-5.85816 -13.8064,-13.94346 -18.53125,-21.75 -11.2619,-18.60725 -16.69053,-41.18734 -17.25,-58.3125 l 0,-0.15625 0,-0.125 c 0.007,-1.69727 -0.67963,-9.06064 -1.78125,-18 -1.10162,-8.93936 -2.58948,-19.98909 -4.03125,-31.125 -1.44177,-11.13591 -2.85258,-22.38044 -3.84375,-31.84375 -0.93778,-8.9536 -1.54045,-15.71546 -1.28125,-20.8125 -3.61363,-4.08248 -12.0514,-11.57628 -20.96875,-18.15625 -8.728522,-6.44064 -18.227868,-12.45789 -23.375,-15.15625 -4.40774,-1.35041 -8.880937,-2.51101 -14,-2.34375 z M 184.75,197.59375 c -2.36309,0.0342 -4.72686,0.18763 -7.09375,0.46875 -0.0512,0.008 -0.10495,0.0229 -0.15625,0.0312 -9.12003,1.47674 -19.96447,5.42769 -28.09375,10.40625 -8.175,5.00656 -12.64013,10.97564 -12.875,14.125 -0.16224,2.17547 0.25332,9.93869 1.21875,19.15625 0.96543,9.21756 2.3757,20.40244 3.8125,31.5 1.4368,11.09756 2.91456,22.12591 4.03125,31.1875 1.09738,8.90489 1.8644,15.33567 1.875,19.625 l 0.0312,0 c 0.46437,14.21404 5.58407,35.31906 15.09375,51.03125 4.45465,7.36009 8.72222,13.38511 14.21875,17.1875 5.49653,3.80239 12.42125,6.01969 24.375,4.8125 14.63937,-1.47841 23.64112,-16.81362 26.875,-23.375 -0.92624,-6.38006 -2.24316,-14.13727 -3.6875,-22.09375 -2.54904,-14.04193 -5.22943,-28.34354 -4.9375,-38.9375 0.23117,-8.38924 -0.46185,-20.50099 -0.8125,-32.375 -0.35065,-11.87401 -0.49579,-23.34609 1.625,-32.40625 1.13061,-4.83002 3.71132,-8.49596 6.6875,-12.28125 2.97618,-3.78529 6.49748,-7.47891 9.875,-10.78125 2.15594,-2.10796 4.17958,-3.96544 6.0625,-5.65625 -15.22934,-12.27144 -36.44938,-21.93877 -58.125,-21.625 z M 287.21875,217.625 c -10.6165,0.26682 -21.62803,4.31607 -31.15625,9.9375 -2.28703,1.97255 -5.4484,4.77258 -8.78125,8.03125 -3.08237,3.01376 -6.18755,6.33164 -8.53125,9.3125 -2.3437,2.98086 -3.77029,5.85665 -3.90625,6.4375 -1.35691,5.79681 -1.56031,16.99651 -1.21875,28.5625 0.33921,11.48632 1.06048,23.4705 0.8125,33 l 0,0.21875 c -0.2027,7.356 2.15136,21.87287 4.6875,35.84375 1.73785,9.57334 3.47754,18.67488 4.40625,26.5 l 0.1875,0.0625 c 0,0 -0.12,0.2982 -0.125,0.3125 0.39954,3.4532 0.6731,6.74896 0.625,9.5625 -0.0614,3.59058 3.07291,8.54551 9.8125,12.75 6.73959,4.20449 16.33902,7.0625 25.375,7.0625 7.94043,0 13.61868,-3.8898 17.96875,-9.65625 4.32429,-5.73228 6.6167,-13.41758 6.6875,-17.90625 l 0,-0.0937 c 0.13234,-13.33736 1.28169,-56.89525 2.46875,-72.8125 0.65501,-8.78301 3.46038,-20.80908 6.8125,-32.28125 3.35212,-11.47217 6.71659,-21.50925 10.875,-27.84375 2.82056,-4.29655 6.59779,-6.58161 10.84375,-9.03125 3.90918,-2.25534 8.25415,-4.3131 12.46875,-6.125 -17.19142,-7.25244 -33.28763,-7.89157 -51.9375,-11.1875 -2.74591,-0.51019 -5.53708,-0.72757 -8.375,-0.65625 z m 106.84375,16.78125 c -1.99463,-0.0217 -3.98666,0.0327 -5.96875,0.1875 -5.38917,0.42099 -11.42944,1.06893 -17.5,2.03125 l 0.0312,0.125 c 0,0 -7.79635,2.51872 -16.1875,6.0625 -4.19558,1.77189 -8.52395,3.79864 -11.90625,5.75 -3.3823,1.95136 -5.74515,4.22635 -5.78125,4.28125 l -0.0312,0.0625 c -1.56904,2.41972 -5.84725,12.9914 -9,23.78125 -3.16427,10.8293 -5.73793,22.74025 -6.21875,29.1875 -0.81633,10.94612 -1.55712,35.80784 -2,54.40625 l 0.8125,0 c -0.004,0.82606 0.79408,2.93616 4.375,5.03125 3.58092,2.09509 9.46697,3.69876 16.90625,3.21875 6.27801,-0.40508 11.27963,-4.72748 16.125,-12.65625 4.84537,-7.92877 8.69858,-18.74799 11.9375,-28.46875 7.65998,-22.98936 31.89222,-46.30788 42.0625,-56.25 l 0.0625,-0.0312 c 6.94858,-6.79337 16.60086,-9.98561 24.75,-12.28125 3.13002,-0.88174 5.91142,-1.51766 8.34375,-2.03125 -3.02508,-4.28507 -7.5909,-9.89962 -12.375,-12.4375 -10.4796,-5.55923 -24.47512,-9.81666 -38.4375,-9.96875 z"
       id="path3781"
       inkscape:connector-curvature="0" />
  </g>
  <g
     style="display:inline"
     inkscape:label="two finger export"
     id="g3768"
     inkscape:groupmode="layer">
    <path
       style="fill:#8c8e8c;fill-opacity:1;stroke:none"
       d="m 192,36.625 c -1.44344,0.02345 -2.92054,0.06688 -4.46875,0.15625 -49.54268,2.859836 -35.09406,24.963397 -33.5625,49.78125 1.53157,24.81785 0.8279,31.1392 1.125,46.71875 0.37461,19.64303 2.73946,38.08857 0.8125,58.96875 -0.96838,10.49284 23.76255,49.31389 20.46875,59.96875 l -3.875,0.46875 c 5.49176,2.69235 11.12171,5.58513 15.78125,9.65625 9.71537,8.48849 16.50367,18.67273 19.28125,29.6875 1.52418,6.04433 0.31099,11.40417 -0.71875,15.75 -1.02974,4.34583 -1.89617,7.87997 -1.78125,10.21875 0.9111,18.54127 2.09016,39.47124 10.03125,49.8125 a 7.5099218,7.5099218 0 1 1 -11.90625,9.15625 C 190.47274,360.41109 190.98429,336.87287 190.09375,318.75 c -0.28232,-5.74526 1.22905,-10.52444 2.15625,-14.4375 0.9272,-3.91306 1.24943,-6.76836 0.78125,-8.625 -1.88938,-7.49253 -6.74214,-15.17116 -14.59375,-22.03125 -2.74412,-2.39759 -7.8994,-5.26541 -13.375,-7.9375 -5.4756,-2.67209 -11.21198,-5.17598 -16.03125,-8.25 -1.04691,-0.66778 -7.9157,-2.28796 -16.375,-1.59375 -5.38264,0.44173 -11.51596,1.61974 -17.71875,3.34375 3.72633,5.12339 6.49557,10.61332 8.40625,15.6875 1.58783,4.2168 2.67263,8.11748 3.3125,11.34375 0.31994,1.61313 0.51257,3.04755 0.625,4.375 0.11243,1.32745 0.40831,2.14258 -0.25,4.59375 -2.98824,11.12654 -12.4093,54.47414 -14.0625,63.5 l -0.0312,0 c -1.06559,7.40343 -3.65086,15.62873 -5.25,23.8125 -1.62066,8.2939 -1.99076,16.18526 -0.0625,21.4375 a 7.5036775,7.5036775 0 0 1 0.0625,0.15625 c 10.36598,12.42473 24.11772,23.81467 36.375,35.65625 10.21388,9.86746 15.12719,22.17906 31.15625,29.4375 21.10585,9.55737 49.91988,16.15048 79.6875,15.9375 18.45707,-0.13206 35.94991,-10.49603 54.40625,-10.625 16.50784,-0.11537 27.93747,8.17334 44.1875,8.84375 28.94123,1.194 64.75625,1.96584 88.84375,-8.84375 25.70808,-11.53687 28.59284,-32.03875 34.65625,-48.6875 6.60056,-18.12372 2.87209,-36.14813 1.21875,-53.96875 -1.41439,-15.24508 -5.56942,-30.18714 -9.5,-45.125 -1.29826,-4.93391 -2.27253,-8.96707 -4.03125,-14 -7.49609,6.42478 -22.6729,19.25318 -31.65625,25.59375 -4.21971,2.97834 -10.89931,10.34811 -17.875,18.875 -6.97569,8.52689 -14.4778,18.23175 -22.0625,26.53125 -7.54555,8.25666 -17.97413,16.96416 -27.6875,24.90625 -9.71337,7.94209 -18.88865,15.30256 -22.71875,19.1875 -8.53034,8.65248 -15.45199,16.8462 -24.84375,22.59375 -9.39176,5.74755 -21.21939,8.13607 -36.21875,5.34375 -8.06973,-1.50228 -13.85269,-3.25518 -18.4375,-6.46875 -4.58481,-3.21357 -7.40695,-9.10885 -7.0625,-14.125 0.1879,-2.73641 0.86353,-5.20647 1.75,-7.5625 -4.96446,0.59379 -10.36802,0.71628 -16.4375,0.375 -7.28002,-0.40935 -13.18246,-2.17128 -17.59375,-5.6875 -4.41129,-3.51622 -6.67046,-8.62381 -7.34375,-13.25 -1.34658,-9.25238 1.73638,-17.74884 2.78125,-23 2.42887,-12.20669 6.0358,-26.95685 9.09375,-41.40625 1.4043,-6.63557 2.45937,-16.47297 3.84375,-26.1875 1.38438,-9.71453 2.90809,-19.23071 6.4375,-26.875 2.37462,-5.14315 8.48177,-16.40699 14.21875,-26.9375 5.1274,-9.4116 8.84058,-16.13537 9.78125,-17.84375 -6.85429,-44.99149 -9.38904,-70.5777 -21.75,-115.5 C 236.65622,115.86697 240.8151,130.86888 234.5,84.15625 232.06607,66.151062 236.74658,35.897973 192,36.625 z m -131.4375,48 c -0.567919,0.0173 -1.14133,0.04279 -1.71875,0.09375 -21.656148,1.91128 -33.229663,15.86293 -35.375,31.09375 -3.103312,22.03194 2.806963,38.30851 7.09375,57.125 4.929082,21.6358 14.331181,42.61642 21.375,63.9375 5.791554,17.53058 13.266722,34.81372 17.15625,52.625 2.61477,11.97371 3.647285,22.74868 4.15625,36.375 0.315023,8.43413 2.00917,20.311 6.53125,28.15625 4.529423,7.85795 7.262278,13.89349 10.25,21.8125 0.85756,2.27298 1.674745,4.2702 2.5,6.09375 0.137263,-0.76663 0.290071,-1.52677 0.4375,-2.28125 1.823745,-9.3332 4.457107,-18.04673 5.1875,-23.3125 a 7.50075,7.50075 0 0 1 0.03125,-0.3125 c 1.87795,-10.25289 10.56436,-50.27552 14.125,-63.8125 -0.10579,0.53152 0.0675,0.11508 0.0312,-0.3125 -0.0483,-0.57011 -0.17245,-1.53992 -0.40625,-2.71875 -0.4676,-2.35766 -1.34259,-5.56306 -2.625,-8.96875 -2.56482,-6.81139 -6.89372,-14.31093 -12.34375,-18.53125 a 7.50075,7.50075 0 0 1 1.7813,-12.875 c 11.0761,-4.44027 22.54618,-7.04532 32.65625,-7.875 2.52752,-0.20742 4.97975,-0.3502 7.3125,-0.375 2.41999,-0.0257 4.72641,0.0951 6.9375,0.375 -7.00633,-15.03649 -16.10816,-30.99007 -21.21875,-44.625 C 119.41242,182.90573 102.57922,172.23489 100.375,158.28125 98.170786,144.3276 92.165064,119.02256 91.4375,105.6875 91.089823,99.315234 78.167978,84.08858 60.5625,84.625 z M 318,243.875 c -20.19651,0.0691 -31.93594,4.72234 -41.4375,8.75 -0.52844,0.95273 -5.14092,9.2933 -10.53125,19.1875 -5.70487,10.47155 -12.06038,22.40297 -13.75,26.0625 -2.05031,4.44075 -3.88601,13.36658 -5.21875,22.71875 -1.33274,9.35217 -2.34552,19.22212 -4.03125,27.1875 C 239.90916,362.53377 236.32521,377.31423 234,389 c -1.33219,6.69508 -3.22357,14.00819 -2.65625,17.90625 0.28366,1.94903 0.67231,2.75375 1.84375,3.6875 1.17144,0.93375 3.79658,2.13964 9.09375,2.4375 11.86244,0.66701 19.622,-0.70437 24.375,-3.1875 0.77864,-0.40679 1.42354,-0.87732 2.09375,-1.34375 a 7.50075,7.50075 0 0 1 0.0312,-0.0312 7.50075,7.50075 0 0 1 2.21875,-1.90625 7.50075,7.50075 0 0 1 0.0312,-0.0312 c 2.13956,-2.19376 3.73078,-5.01506 5.03125,-9.1875 2.84405,-9.12486 10.4986,-17.26996 19.15625,-27.3125 8.65765,-10.04254 18.38842,-20.80192 24.65625,-29.40625 10.53589,-14.46343 20.30101,-29.05956 29.5,-43.71875 6.02949,-9.60839 16.4351,-28.13183 18.25,-31.375 C 365.01903,253.27901 343.68361,243.78709 318,243.875 z m 63.03125,28.34375 c -1.03201,1.85188 -12.16086,21.80741 -18.96875,32.65625 -9.35727,14.91141 -19.29689,29.78371 -30.0625,44.5625 -7.07279,9.70938 -16.92581,20.56927 -25.40625,30.40625 -8.48044,9.83698 -15.54643,19.81166 -16.21875,21.96875 -1.97133,6.32481 -5.28707,11.90314 -9.875,16.25 -5.07224,9.1725 -9.30795,16.7243 -9.40625,18.15625 -0.0517,0.7527 -0.74134,-0.189 0.6875,0.8125 1.42884,1.0015 5.55201,2.68909 12.59375,4 12.38736,2.30606 19.03533,0.62648 25.625,-3.40625 6.58967,-4.03273 13.14539,-11.29941 22.03125,-20.3125 5.36395,-5.44075 14.28495,-12.40874 23.875,-20.25 9.59005,-7.84126 19.68223,-16.3905 26.09375,-23.40625 6.97178,-7.62881 14.40878,-17.19299 21.5625,-25.9375 7.15372,-8.74451 13.77984,-16.63918 20.84375,-21.625 9.827,-6.93604 31.99588,-25.99047 34.21875,-27.90625 -1.64381,-3.07184 -3.74083,-6.29094 -6.21875,-8.34375 -8.01583,-6.64066 -11.0245,-12.09482 -40.59375,-16.71875 -6.78239,-0.0979 -19.94011,-0.34915 -30.78125,-0.90625 z"
       id="path3770"
       inkscape:connector-curvature="0" />
  </g>
</svg>
